<svg width="17" height="17" viewBox="0 0 17 17" fill="none" xmlns="http://www.w3.org/2000/svg">
<path d="M12.1709 16.1137L4.77041 7.74292V16.7806H0.00863747V1.58539C-0.0148634 1.37266 0.0097408 1.15737 0.0806255 0.95542C0.15151 0.753473 0.266872 0.570029 0.418177 0.41865C0.569482 0.267279 0.752857 0.151834 0.954774 0.080847C1.15669 0.00986737 1.37198 -0.0148359 1.58472 0.0085632H2.49459C2.86311 0.00197569 3.22922 0.0691178 3.5714 0.20604C3.90087 0.348692 4.1959 0.560371 4.43657 0.826785L11.8065 9.16773V0.160583H16.5981V15.3558C16.6217 15.5687 16.5972 15.7841 16.5263 15.9862C16.4555 16.1883 16.34 16.372 16.1887 16.5234C16.0373 16.6749 15.8537 16.7904 15.6516 16.8613C15.4496 16.9323 15.2342 16.9569 15.0213 16.9334H14.1114C13.7429 16.94 13.3768 16.8728 13.0346 16.7359C12.7057 16.5928 12.4112 16.3808 12.1709 16.1144"/>
</svg>
