<svg width="18" height="18" viewBox="0 0 18 18" fill="none" xmlns="http://www.w3.org/2000/svg">
<path d="M8.99996 0.666656C4.39996 0.666656 0.666626 4.39999 0.666626 8.99999C0.666626 13.6 4.39996 17.3333 8.99996 17.3333C13.6 17.3333 17.3333 13.6 17.3333 8.99999C17.3333 4.39999 13.6 0.666656 8.99996 0.666656ZM10.175 14.075V15.6667H7.94996V14.0583C6.52496 13.7583 5.31663 12.8417 5.22496 11.225H6.85829C6.94163 12.1 7.54163 12.7833 9.06663 12.7833C10.7 12.7833 11.0666 11.9667 11.0666 11.4583C11.0666 10.7667 10.7 10.1167 8.84163 9.67499C6.77496 9.17499 5.35829 8.32499 5.35829 6.61666C5.35829 5.18332 6.51663 4.24999 7.94996 3.94166V2.33332H10.175V3.95832C11.725 4.33332 12.5 5.50832 12.55 6.78332H10.9166C10.875 5.85832 10.3833 5.22499 9.06663 5.22499C7.81663 5.22499 7.06663 5.79166 7.06663 6.59166C7.06663 7.29166 7.60829 7.74999 9.29163 8.18332C10.975 8.61666 12.775 9.34166 12.775 11.4417C12.7666 12.9667 11.625 13.8 10.175 14.075Z" fill="#BDBDBD"/>
</svg>
