<svg width="18" height="18" viewBox="0 0 18 18" fill="none" xmlns="http://www.w3.org/2000/svg">
<path d="M2.33333 4.00001H0.666664V15.6667C0.666664 16.5833 1.41666 17.3333 2.33333 17.3333H14V15.6667H2.33333V4.00001ZM15.6667 0.666672H5.66666C4.75 0.666672 4 1.41667 4 2.33334V12.3333C4 13.25 4.75 14 5.66666 14H15.6667C16.5833 14 17.3333 13.25 17.3333 12.3333V2.33334C17.3333 1.41667 16.5833 0.666672 15.6667 0.666672ZM14.8333 8.16667H6.5V6.5H14.8333V8.16667ZM11.5 11.5H6.5V9.83334H11.5V11.5ZM14.8333 4.83334H6.5V3.16667H14.8333V4.83334Z" fill="#BDBDBD"/>
</svg>
