<svg width="20" height="20" viewBox="0 0 20 20" fill="none" xmlns="http://www.w3.org/2000/svg">
<path d="M9.99998 6.66668C8.15831 6.66668 6.66665 8.15834 6.66665 10C6.66665 11.8417 8.15831 13.3333 9.99998 13.3333C11.8416 13.3333 13.3333 11.8417 13.3333 10C13.3333 8.15834 11.8416 6.66668 9.99998 6.66668ZM17.45 9.16668C17.0666 5.69168 14.3083 2.93334 10.8333 2.55001V0.833344H9.16665V2.55001C5.69165 2.93334 2.93331 5.69168 2.54998 9.16668H0.833313V10.8333H2.54998C2.93331 14.3083 5.69165 17.0667 9.16665 17.45V19.1667H10.8333V17.45C14.3083 17.0667 17.0666 14.3083 17.45 10.8333H19.1666V9.16668H17.45ZM9.99998 15.8333C6.77498 15.8333 4.16665 13.225 4.16665 10C4.16665 6.77501 6.77498 4.16668 9.99998 4.16668C13.225 4.16668 15.8333 6.77501 15.8333 10C15.8333 13.225 13.225 15.8333 9.99998 15.8333Z" fill="#BDBDBD"/>
</svg>
